<svg id="Layer_1" data-name="Layer 1" xmlns="http://www.w3.org/2000/svg" viewBox="0 0 147 18"><defs><style>.cls-1{fill:#e2e2e2;}.cls-2{fill:#686868;}.cls-3{font-size:1.48px;fill:#d3d3d3;font-family:NexaBold, Nexa Bold;letter-spacing:0.36em;}.cls-4{letter-spacing:0.38em;}</style></defs><title>logo5</title><path class="cls-1" d="M5.12,9.59H2.34l-.58,1H.58L3.1,5.06l.57-1.37L7,10.62l-1.25,0ZM3.75,8.76,2.69,8.64H4.84Z"/><path class="cls-1" d="M10,10.62v-2a.87.87,0,0,0-.83-1,.9.9,0,0,0-.87,1v2h-1V6.78h.93l.07.46a1.23,1.23,0,0,1,1.08-.52,1.22,1.22,0,0,1,1.2.71,1.5,1.5,0,0,1,1.36-.7,1.59,1.59,0,0,1,1.72,1.82v2.07h-1V8.55c0-.51-.22-.93-.77-.93a.89.89,0,0,0-.88,1v2Z"/><path class="cls-1" d="M15.67,5.19V7.31A1.72,1.72,0,0,1,17,6.69a1.9,1.9,0,0,1,2.07,2,1.94,1.94,0,0,1-2.1,2,1.52,1.52,0,0,1-1.31-.61l-.06.53h-.94V5.19Zm.07,3.51a1.11,1.11,0,0,0,1.18,1.12A1.1,1.1,0,0,0,18.07,8.7a1.09,1.09,0,0,0-1.15-1.12A1.13,1.13,0,0,0,15.74,8.7Z"/><path class="cls-1" d="M20.75,6.79l.08.44A1.22,1.22,0,0,1,22,6.69,1.6,1.6,0,0,1,23,7.05l-.45.82a1.07,1.07,0,0,0-.73-.24.91.91,0,0,0-1,1v2h-1V6.79Z"/><path class="cls-1" d="M26.62,6.79h1v3.83h-.95l-.05-.56a1.58,1.58,0,0,1-1.32.67,1.91,1.91,0,0,1-2.09-2,1.93,1.93,0,0,1,2.12-2,1.52,1.52,0,0,1,1.29.62ZM24.18,8.7a1.13,1.13,0,0,0,1.21,1.16,1.16,1.16,0,1,0,0-2.32A1.13,1.13,0,0,0,24.18,8.7Z"/><path class="cls-1" d="M31.5,6.79v.45L29.63,9.68h1.89v.94H28.1v-.4L30,7.65H28.25V6.79Z"/><path class="cls-1" d="M33,9c.07.47.5.81,1.21.81a1.78,1.78,0,0,0,1.09-.35l.64.6a2.61,2.61,0,0,1-1.74.62,2,2,0,0,1-2.24-2.05,2,2,0,0,1,2.16-2,1.91,1.91,0,0,1,2,2.37Zm2.21-.79c-.07-.49-.48-.74-1.06-.74A1.09,1.09,0,0,0,33,8.25Z"/><path class="cls-2" d="M2.62,8l2.75,1L3.74,5.42Z"/><text class="cls-3" transform="translate(6.31 13.37)">D<tspan class="cls-4" x="1.58" y="0">E</tspan><tspan x="3.07" y="0">SIGN YOUR DREAM</tspan></text></svg>