<svg xmlns="http://www.w3.org/2000/svg" xmlns:cc="http://web.resource.org/cc/" xmlns:svg="http://www.w3.org/2000/svg" xmlns:xlink="http://www.w3.org/1999/xlink" id="svg2" x="0" style="enable-background:new 0 0 474.8 137.8" y="0" version="1.1" viewBox="0 0 474.8 137.8" xml:space="preserve"><style type="text/css">.st0{fill:#646464}.st1{fill:url(#path1948_1_)}.st2{fill:url(#path1950_1_)}.st3{opacity:.4438;fill:url(#path1894_1_);enable-background:new}</style><g id="g2303"><path id="path46" d="M179,58.7c0-14.6-4.2-22-12.5-22.4c-3.3-0.2-6.5,0.4-9.7,1.6c-2.5,0.9-4.2,1.8-5.1,2.7v34.8 c5.3,3.3,10,4.9,14.1,4.6C174.7,79.3,179,72.2,179,58.7z M189.3,59.3c0,7.4-1.7,13.5-5.2,18.4c-3.9,5.5-9.3,8.4-16.2,8.5 c-5.2,0.2-10.5-1.5-16.1-4.9v31.6l-8.9-3.2V39.6c1.5-1.8,3.3-3.3,5.6-4.6c5.3-3.1,11.7-4.7,19.3-4.8l0.1,0.1 c6.9-0.1,12.3,2.8,16,8.5C187.5,44.2,189.3,51,189.3,59.3z" class="st0"/><path id="path48" d="M243.7,80c0,9.9-1,16.8-3,20.6c-2,3.8-5.8,6.9-11.4,9.1c-4.6,1.8-9.5,2.8-14.8,2.9l-1.5-5.6 c5.4-0.7,9.2-1.5,11.3-2.2c4.3-1.5,7.3-3.7,8.9-6.7c1.3-2.4,1.9-7.1,1.9-14v-2.3c-6.1,2.8-12.5,4.1-19.2,4.1 c-4.4,0-8.3-1.4-11.6-4.1c-3.7-3-5.6-6.8-5.6-11.5V33.3l8.9-3.1v37.3c0,4,1.3,7.1,3.9,9.2c2.6,2.2,5.9,3.2,10,3.1 c4.1-0.1,8.5-1.7,13.1-4.8V31.6h8.9V80z" class="st0"/><path id="path50" d="M278.5,85.7c-1.1,0.1-2,0.1-2.9,0.1c-5,0-9-1.2-11.8-3.6c-2.8-2.4-4.2-5.7-4.2-10V37.2h-6.1v-5.6 h6.1V16.7l8.9-3.2v18.1h10v5.6h-10V72c0,3.3,0.9,5.7,2.7,7.1c1.5,1.1,4,1.8,7.3,2V85.7z" class="st0"/><path id="path52" d="M332.4,85h-8.9V50.6c0-3.5-0.8-6.5-2.4-9c-1.9-2.8-4.5-4.3-7.8-4.3c-4.1,0-9.2,2.2-15.3,6.5V85 H289V2.8l8.9-2.8v37.4c5.7-4.1,11.9-6.2,18.7-6.2c4.7,0,8.5,1.6,11.5,4.8c2.9,3.2,4.4,7.1,4.4,11.8V85L332.4,85z" class="st0"/><path id="path54" d="M379.8,57.3c0-5.6-1.1-10.2-3.2-13.9c-2.5-4.5-6.4-6.8-11.7-7c-9.8,0.6-14.6,7.6-14.6,21 c0,6.2,1,11.3,3.1,15.4c2.6,5.3,6.5,7.8,11.8,7.8C374.9,80.4,379.8,72.7,379.8,57.3z M389.5,57.3c0,8-2,14.6-6.1,19.9 c-4.5,5.9-10.7,8.9-18.5,8.9c-7.8,0-13.9-3-18.3-8.9c-4-5.3-6-11.9-6-19.9c0-7.5,2.2-13.8,6.5-18.9c4.6-5.4,10.5-8.2,17.9-8.2 c7.4,0,13.4,2.7,18.1,8.2C387.4,43.5,389.5,49.8,389.5,57.3z" class="st0"/><path id="path56" d="M440.6,85h-8.9V48.7c0-4-1.2-7.1-3.6-9.3c-2.4-2.2-5.6-3.3-9.6-3.2c-4.2,0.1-8.3,1.5-12.1,4.1V85 h-8.9V39.1c5.1-3.7,9.8-6.2,14.2-7.3c4.1-1.1,7.7-1.6,10.7-1.6c2.1,0,4.1,0.2,6,0.6c3.5,0.8,6.3,2.3,8.5,4.5 c2.4,2.4,3.7,5.4,3.7,8.8V85z" class="st0"/><linearGradient id="path1948_1_" x1="395.702" x2="504.718" y1="-158.711" y2="-252.505" gradientTransform="matrix(0.5625 0 0 -0.568 -225.3257 -83.8079)" gradientUnits="userSpaceOnUse"><stop offset="0" style="stop-color:#5a9fd4"/><stop offset="1" style="stop-color:#306998"/></linearGradient><path id="path1948" d="M54.9,3.1c-4.6,0-9,0.4-12.8,1.1c-11.3,2-13.4,6.2-13.4,13.9v10.2h26.8v3.4H28.7H18.6 c-7.8,0-14.6,4.7-16.8,13.6c-2.5,10.2-2.6,16.6,0,27.2c1.9,7.9,6.5,13.6,14.2,13.6h9.2V74c0-8.8,7.7-16.7,16.8-16.7h26.8 c7.5,0,13.4-6.1,13.4-13.6V18.2c0-7.3-6.1-12.7-13.4-13.9C64.3,3.5,59.5,3.1,54.9,3.1z M40.4,11.4c2.8,0,5,2.3,5,5.1 c0,2.8-2.3,5.1-5,5.1c-2.8,0-5-2.3-5-5.1C35.4,13.7,37.6,11.4,40.4,11.4z" class="st1"/><linearGradient id="path1950_1_" x1="546.865" x2="507.935" y1="-309.273" y2="-254.194" gradientTransform="matrix(0.5625 0 0 -0.568 -225.3257 -83.8079)" gradientUnits="userSpaceOnUse"><stop offset="0" style="stop-color:#ffd43b"/><stop offset="1" style="stop-color:#ffe873"/></linearGradient><path id="path1950" d="M85.6,31.8v11.9c0,9.2-7.8,17-16.8,17H42.1c-7.3,0-13.4,6.3-13.4,13.6v25.5 c0,7.3,6.3,11.5,13.4,13.6c8.5,2.5,16.6,2.9,26.8,0c6.8-2,13.4-5.9,13.4-13.6V89.6H55.5v-3.4h26.8h13.4c7.8,0,10.7-5.4,13.4-13.6 c2.8-8.4,2.7-16.5,0-27.2c-1.9-7.8-5.6-13.6-13.4-13.6H85.6z M70.6,96.4c2.8,0,5,2.3,5,5.1c0,2.8-2.3,5.1-5,5.1c-2.8,0-5-2.3-5-5.1 C65.5,98.7,67.8,96.4,70.6,96.4z" class="st2"/><path id="text3004" d="M458,23.6h1.6v-9.8h3.7v-1.2h-9v1.2h3.7V23.6 M464.6,23.6h1.3v-8.9l2.9,8.9h1.5l3-8.9v8.9h1.5 v-11h-1.9l-3.3,9.4l-2.8-9.4h-2.2V23.6" class="st0"/><radialGradient id="path1894_1_" cx="-1786.538" cy="-155.252" r="29.037" gradientTransform="matrix(1.749057e-08 -0.2399 -1.0547 -3.791546e-07 -107.9228 -297.8381)" gradientUnits="userSpaceOnUse"><stop offset="0" style="stop-color:#b8b8b8;stop-opacity:.498"/><stop offset="1" style="stop-color:#7f7f7f;stop-opacity:0"/></radialGradient><path id="path1894" d="M91.7,130.8c0,3.8-16.1,7-35.9,7s-35.9-3.1-35.9-7c0-3.8,16.1-7,35.9-7S91.7,127,91.7,130.8z" class="st3"/></g></svg>